# xmcd CD database file
#
# Track frame offsets:
#	150
#	29389
#	55224
#	72635
#	89988
#	134643
#	152578
#
# Disc length: 2377 seconds
#
# Revision: 1
# Processed by: cddbd v1.5.2PL0 Copyright (c) Steve Scherf et al.
# Submitted via: Kat CD Ripper 
#
DISCID=69094707
DTITLE=KOONDA HOLAA - SHITMAN
DYEAR=1900
DGENRE=Blues
TTITLE0=I came to this Country
TTITLE1=Satan your kingdom must come down
TTITLE2=Kickin' cans
TTITLE3=fat bitch must die
TTITLE4=Cas
TTITLE5=Shitman
TTITLE6=Young girl
EXTD=
EXTT0=
EXTT1=
EXTT2=
EXTT3=
EXTT4=
EXTT5=
EXTT6=
PLAYORDER=
